<?xml version="1.0" encoding="UTF-8" standalone="no"?>
<!-- Created with Inkscape (http://www.inkscape.org/) -->
<svg xmlns:dc="http://purl.org/dc/elements/1.1/" xmlns:cc="http://creativecommons.org/ns#" xmlns:rdf="http://www.w3.org/1999/02/22-rdf-syntax-ns#" xmlns:svg="http://www.w3.org/2000/svg" xmlns="http://www.w3.org/2000/svg" xmlns:xlink="http://www.w3.org/1999/xlink" version="1.1" width="199.26878" height="41.392952" id="svg2" xml:space="preserve"><metadata id="metadata8"><rdf:RDF><cc:Work rdf:about=""><dc:format>image/svg+xml</dc:format><dc:type rdf:resource="http://purl.org/dc/dcmitype/StillImage"/><dc:title/></cc:Work></rdf:RDF></metadata><defs id="defs6"><clipPath id="clipPath16"><path d="m 0,514.235 1133.86,0 L 1133.86,0 0,0 0,514.235 z" id="path18"/></clipPath><clipPath id="clipPath24"><path d="m 283.336,223.157 662.662,0 0,-57.703 -662.662,0 0,57.703 z" id="path26"/></clipPath><clipPath id="clipPath28"><path d="m 367.533,169.271 -5.189,0 -36.974,49.535 -36.974,-49.535 -5.06,0 0,52.97 4.8,0 0,-46.33 34.639,46.33 5.319,0 34.509,-46.33 0,46.33 4.93,0 0,-52.97 z" id="path30"/></clipPath><linearGradient x1="0" y1="0" x2="1" y2="0" id="linearGradient32" gradientUnits="userSpaceOnUse" gradientTransform="matrix(3.4526789,181.26564,181.26564,-3.4526789,323.2012,78.508263)" spreadMethod="pad"><stop id="stop34" style="stop-color:#ffffff;stop-opacity:1" offset="0"/><stop id="stop36" style="stop-color:#706d6e;stop-opacity:1" offset="1"/></linearGradient><clipPath id="clipPath38"><path d="m 430.321,169.195 -6.227,0 -10.898,7.785 5.449,0 11.676,-7.785 z m -43.331,30.53 c 2.206,-8.472 13.882,-14.884 28.023,-14.884 14.011,0 25.817,6.412 28.152,14.884 l -56.175,0 z m 61.364,2.824 c 0.26,-9.922 -13.362,-20.608 -33.341,-20.608 -18.422,0 -33.342,9.312 -33.342,20.76 0,11.449 15.049,20.456 34.12,20.456 15.698,0 26.466,-4.656 31.136,-13.128 l -5.059,0 c -3.244,5.19 -10.379,10.304 -26.077,10.304 -16.216,0 -29.19,-7.557 -29.32,-17.784 l 61.883,0 z" id="path40"/></clipPath><linearGradient x1="0" y1="0" x2="1" y2="0" id="linearGradient42" gradientUnits="userSpaceOnUse" gradientTransform="matrix(3.4526789,181.26564,181.26564,-3.4526789,412.62048,76.805038)" spreadMethod="pad"><stop id="stop44" style="stop-color:#ffffff;stop-opacity:1" offset="0"/><stop id="stop46" style="stop-color:#706d6e;stop-opacity:1" offset="1"/></linearGradient><clipPath id="clipPath48"><path d="m 517.24,202.701 c 0,9.694 -12.843,17.632 -28.541,17.632 -15.698,0 -28.541,-7.938 -28.541,-17.632 0,-9.846 12.843,-17.86 28.541,-17.86 15.698,0 28.541,8.014 28.541,17.86 m 4.801,-37.247 -4.801,0 0,27.02 c -5.448,-6.259 -16.086,-10.533 -28.541,-10.533 -18.422,0 -33.341,9.312 -33.341,20.76 0,11.297 14.919,20.456 33.341,20.456 12.455,0 23.093,-4.198 28.541,-10.381 l 0,9.465 4.801,0 0,-56.787 z" id="path50"/></clipPath><linearGradient x1="0" y1="0" x2="1" y2="0" id="linearGradient52" gradientUnits="userSpaceOnUse" gradientTransform="matrix(3.4526789,181.26564,181.26564,-3.4526789,486.62787,75.395378)" spreadMethod="pad"><stop id="stop54" style="stop-color:#ffffff;stop-opacity:1" offset="0"/><stop id="stop56" style="stop-color:#706d6e;stop-opacity:1" offset="1"/></linearGradient><clipPath id="clipPath58"><path d="m 546.168,169.271 -4.8,0 0,7.022 4.8,0 0,-7.022 z m 0,13.662 -4.8,0 0,39.308 4.8,0 0,-39.308 z" id="path60"/></clipPath><linearGradient x1="0" y1="0" x2="1" y2="0" id="linearGradient62" gradientUnits="userSpaceOnUse" gradientTransform="matrix(3.4526789,181.26564,181.26564,-3.4526789,541.45612,74.351028)" spreadMethod="pad"><stop id="stop64" style="stop-color:#ffffff;stop-opacity:1" offset="0"/><stop id="stop66" style="stop-color:#706d6e;stop-opacity:1" offset="1"/></linearGradient><clipPath id="clipPath68"><path d="m 612.072,201.175 -36.455,0 18.163,-28.011 18.292,28.011 z m 1.816,2.824 11.937,18.242 5.189,0 -34.509,-52.97 -5.319,0 -34.509,52.97 5.189,0 11.935,-18.242 40.087,0 z" id="path70"/></clipPath><linearGradient x1="0" y1="0" x2="1" y2="0" id="linearGradient72" gradientUnits="userSpaceOnUse" gradientTransform="matrix(3.4526789,181.26564,181.26564,-3.4526789,591.01013,73.407143)" spreadMethod="pad"><stop id="stop74" style="stop-color:#ffffff;stop-opacity:1" offset="0"/><stop id="stop76" style="stop-color:#706d6e;stop-opacity:1" offset="1"/></linearGradient><clipPath id="clipPath78"><path d="m 646.578,165.454 -4.8,0 0,56.786 4.8,0 0,-56.786 z" id="path80"/></clipPath><linearGradient x1="0" y1="0" x2="1" y2="0" id="linearGradient82" gradientUnits="userSpaceOnUse" gradientTransform="matrix(3.4526789,181.26564,181.26564,-3.4526789,641.86609,72.438461)" spreadMethod="pad"><stop id="stop84" style="stop-color:#ffffff;stop-opacity:1" offset="0"/><stop id="stop86" style="stop-color:#706d6e;stop-opacity:1" offset="1"/></linearGradient><clipPath id="clipPath88"><path d="m 718.45,211.097 c -0.648,-7.937 -13.492,-10.075 -27.374,-11.296 -14.789,-1.221 -21.795,-2.671 -21.924,-7.174 -0.13,-4.58 8.432,-8.015 20.497,-8.015 11.936,0 19.59,3.053 22.315,8.32 l 4.929,0 c -2.854,-7.099 -12.584,-10.991 -27.373,-10.991 -16.736,0 -25.299,5.343 -25.299,10.686 0.26,7.785 14.531,8.93 26.077,9.922 16.347,1.374 22.963,3.816 23.223,8.624 0.259,2.061 -0.909,3.969 -3.244,5.42 -3.892,2.366 -10.638,3.892 -18.681,3.892 -14.141,0 -23.742,-3.358 -26.078,-9.693 l -4.799,0 c 2.205,8.014 14.141,12.365 31.006,12.365 9.341,0 17.255,-1.68 22.055,-4.58 3.243,-1.984 4.8,-4.732 4.67,-7.48" id="path90"/></clipPath><linearGradient x1="0" y1="0" x2="1" y2="0" id="linearGradient92" gradientUnits="userSpaceOnUse" gradientTransform="matrix(3.4526789,181.26564,181.26564,-3.4526789,686.93121,71.580078)" spreadMethod="pad"><stop id="stop94" style="stop-color:#ffffff;stop-opacity:1" offset="0"/><stop id="stop96" style="stop-color:#706d6e;stop-opacity:1" offset="1"/></linearGradient><clipPath id="clipPath98"><path d="m 788.761,202.701 c 0,9.694 -12.844,17.632 -28.542,17.632 -15.697,0 -28.541,-7.938 -28.541,-17.632 0,-9.846 12.844,-17.86 28.541,-17.86 15.698,0 28.542,8.014 28.542,17.86 m 4.8,-19.768 -4.8,0 0,9.541 c -5.449,-6.259 -16.087,-10.533 -28.542,-10.533 -18.421,0 -33.341,9.312 -33.341,20.76 0,11.297 14.92,20.456 33.341,20.456 12.455,0 23.093,-4.198 28.542,-10.381 l 0,9.465 4.8,0 0,-39.308 z" id="path100"/></clipPath><linearGradient x1="0" y1="0" x2="1" y2="0" id="linearGradient102" gradientUnits="userSpaceOnUse" gradientTransform="matrix(3.4526789,181.26564,181.26564,-3.4526789,757.88318,70.228607)" spreadMethod="pad"><stop id="stop104" style="stop-color:#ffffff;stop-opacity:1" offset="0"/><stop id="stop106" style="stop-color:#706d6e;stop-opacity:1" offset="1"/></linearGradient><linearGradient x1="0" y1="0" x2="1" y2="0" id="linearGradient112" gradientUnits="userSpaceOnUse" gradientTransform="matrix(3.4526789,181.26564,181.26564,-3.4526789,836.03229,68.740059)" spreadMethod="pad"><stop id="stop114" style="stop-color:#ffffff;stop-opacity:1" offset="0"/><stop id="stop116" style="stop-color:#706d6e;stop-opacity:1" offset="1"/></linearGradient><linearGradient x1="0" y1="0" x2="1" y2="0" id="linearGradient122" gradientUnits="userSpaceOnUse" gradientTransform="matrix(3.4526789,181.26564,181.26564,-3.4526789,910.08032,67.329613)" spreadMethod="pad"><stop id="stop124" style="stop-color:#ffffff;stop-opacity:1" offset="0"/><stop id="stop126" style="stop-color:#706d6e;stop-opacity:1" offset="1"/></linearGradient><linearGradient x1="0" y1="0" x2="1" y2="0" id="linearGradient390" gradientUnits="userSpaceOnUse" gradientTransform="matrix(57.894863,69.239021,69.239021,-57.894863,137.99815,235.362)" spreadMethod="pad"><stop id="stop392" style="stop-color:#5196d7;stop-opacity:1" offset="0"/><stop id="stop394" style="stop-color:#2f5790;stop-opacity:1" offset="1"/></linearGradient><radialGradient cx="0" cy="0" r="1" fx="0" fy="0" id="radialGradient410" gradientUnits="userSpaceOnUse" gradientTransform="matrix(112.3045,0,0,-112.3045,236.6842,327.62381)" spreadMethod="pad"><stop id="stop412" style="stop-color:#abe3ee;stop-opacity:1" offset="0"/><stop id="stop414" style="stop-color:#5aa1dd;stop-opacity:1" offset="1"/></radialGradient><linearGradient x1="0" y1="0" x2="1" y2="0" id="linearGradient430" gradientUnits="userSpaceOnUse" gradientTransform="matrix(141.41374,-112.66137,-112.66137,-141.41374,112.41245,319.24017)" spreadMethod="pad"><stop id="stop432" style="stop-color:#5aa1dd;stop-opacity:1" offset="0"/><stop id="stop434" style="stop-color:#abe3ee;stop-opacity:1" offset="1"/></linearGradient><linearGradient x1="0" y1="0" x2="1" y2="0" id="linearGradient3629" xlink:href="#linearGradient430" gradientUnits="userSpaceOnUse" gradientTransform="matrix(141.41374,-112.66137,-112.66137,-141.41374,112.41245,319.24017)" spreadMethod="pad"/><radialGradient cx="0" cy="0" r="1" fx="0" fy="0" id="radialGradient3634" xlink:href="#radialGradient410" gradientUnits="userSpaceOnUse" gradientTransform="matrix(112.3045,0,0,-112.3045,236.6842,327.62381)" spreadMethod="pad"/><linearGradient x1="0" y1="0" x2="1" y2="0" id="linearGradient3639" xlink:href="#linearGradient390" gradientUnits="userSpaceOnUse" gradientTransform="matrix(57.894863,69.239021,69.239021,-57.894863,137.99815,235.362)" spreadMethod="pad"/><linearGradient x1="0" y1="0" x2="1" y2="0" id="linearGradient3718" xlink:href="#linearGradient32" gradientUnits="userSpaceOnUse" gradientTransform="matrix(3.4526789,181.26564,181.26564,-3.4526789,323.2012,78.508263)" spreadMethod="pad"/><linearGradient x1="0" y1="0" x2="1" y2="0" id="linearGradient3720" xlink:href="#linearGradient42" gradientUnits="userSpaceOnUse" gradientTransform="matrix(3.4526789,181.26564,181.26564,-3.4526789,412.62048,76.805038)" spreadMethod="pad"/><linearGradient x1="0" y1="0" x2="1" y2="0" id="linearGradient3722" xlink:href="#linearGradient52" gradientUnits="userSpaceOnUse" gradientTransform="matrix(3.4526789,181.26564,181.26564,-3.4526789,486.62787,75.395378)" spreadMethod="pad"/><linearGradient x1="0" y1="0" x2="1" y2="0" id="linearGradient3724" xlink:href="#linearGradient62" gradientUnits="userSpaceOnUse" gradientTransform="matrix(3.4526789,181.26564,181.26564,-3.4526789,541.45612,74.351028)" spreadMethod="pad"/><linearGradient x1="0" y1="0" x2="1" y2="0" id="linearGradient3726" xlink:href="#linearGradient72" gradientUnits="userSpaceOnUse" gradientTransform="matrix(3.4526789,181.26564,181.26564,-3.4526789,591.01013,73.407143)" spreadMethod="pad"/><linearGradient x1="0" y1="0" x2="1" y2="0" id="linearGradient3728" xlink:href="#linearGradient82" gradientUnits="userSpaceOnUse" gradientTransform="matrix(3.4526789,181.26564,181.26564,-3.4526789,641.86609,72.438461)" spreadMethod="pad"/><linearGradient x1="0" y1="0" x2="1" y2="0" id="linearGradient3730" xlink:href="#linearGradient92" gradientUnits="userSpaceOnUse" gradientTransform="matrix(3.4526789,181.26564,181.26564,-3.4526789,686.93121,71.580078)" spreadMethod="pad"/><linearGradient x1="0" y1="0" x2="1" y2="0" id="linearGradient3732" xlink:href="#linearGradient102" gradientUnits="userSpaceOnUse" gradientTransform="matrix(3.4526789,181.26564,181.26564,-3.4526789,757.88318,70.228607)" spreadMethod="pad"/><linearGradient x1="0" y1="0" x2="1" y2="0" id="linearGradient3734" xlink:href="#linearGradient112" gradientUnits="userSpaceOnUse" gradientTransform="matrix(3.4526789,181.26564,181.26564,-3.4526789,836.03229,68.740059)" spreadMethod="pad"/><linearGradient x1="0" y1="0" x2="1" y2="0" id="linearGradient3736" xlink:href="#linearGradient122" gradientUnits="userSpaceOnUse" gradientTransform="matrix(3.4526789,181.26564,181.26564,-3.4526789,910.08032,67.329613)" spreadMethod="pad"/></defs><g transform="matrix(0.23828768,0,0,-0.23828768,-26.150881,80.818603)" id="g22"/><g id="g3810"><g transform="matrix(0.23828768,0,0,-0.23828768,-26.150881,80.818603)" id="g128"><g clip-path="url(#clipPath24)" id="g130" style="opacity:0.14999402"><g id="g132"><g clip-path="url(#clipPath28)" id="g134"><g id="g136"><g id="g138"><path d="m 367.533,169.271 -5.189,0 -36.974,49.535 -36.974,-49.535 -5.06,0 0,52.97 4.8,0 0,-46.33 34.639,46.33 5.319,0 34.509,-46.33 0,46.33 4.93,0 0,-52.97 z" id="path140" style="fill:url(#linearGradient3718);stroke:none"/></g></g></g></g><g id="g142"><g clip-path="url(#clipPath38)" id="g144"><g id="g146"><g id="g148"><path d="m 430.321,169.195 -6.227,0 -10.898,7.785 5.449,0 11.676,-7.785 z m -43.331,30.53 c 2.206,-8.472 13.882,-14.884 28.023,-14.884 14.011,0 25.817,6.412 28.152,14.884 l -56.175,0 z m 61.364,2.824 c 0.26,-9.922 -13.362,-20.608 -33.341,-20.608 -18.422,0 -33.342,9.312 -33.342,20.76 0,11.449 15.049,20.456 34.12,20.456 15.698,0 26.466,-4.656 31.136,-13.128 l -5.059,0 c -3.244,5.19 -10.379,10.304 -26.077,10.304 -16.216,0 -29.19,-7.557 -29.32,-17.784 l 61.883,0 z" id="path150" style="fill:url(#linearGradient3720);stroke:none"/></g></g></g></g><g id="g152"><g clip-path="url(#clipPath48)" id="g154"><g id="g156"><g id="g158"><path d="m 517.24,202.701 c 0,9.694 -12.843,17.632 -28.541,17.632 -15.698,0 -28.541,-7.938 -28.541,-17.632 0,-9.846 12.843,-17.86 28.541,-17.86 15.698,0 28.541,8.014 28.541,17.86 m 4.801,-37.247 -4.801,0 0,27.02 c -5.448,-6.259 -16.086,-10.533 -28.541,-10.533 -18.422,0 -33.341,9.312 -33.341,20.76 0,11.297 14.919,20.456 33.341,20.456 12.455,0 23.093,-4.198 28.541,-10.381 l 0,9.465 4.801,0 0,-56.787 z" id="path160" style="fill:url(#linearGradient3722);stroke:none"/></g></g></g></g><g id="g162"><g clip-path="url(#clipPath58)" id="g164"><g id="g166"><g id="g168"><path d="m 546.168,169.271 -4.8,0 0,7.022 4.8,0 0,-7.022 z m 0,13.662 -4.8,0 0,39.308 4.8,0 0,-39.308 z" id="path170" style="fill:url(#linearGradient3724);stroke:none"/></g></g></g></g><g id="g172"><g clip-path="url(#clipPath68)" id="g174"><g id="g176"><g id="g178"><path d="m 612.072,201.175 -36.455,0 18.163,-28.011 18.292,28.011 z m 1.816,2.824 11.937,18.242 5.189,0 -34.509,-52.97 -5.319,0 -34.509,52.97 5.189,0 11.935,-18.242 40.087,0 z" id="path180" style="fill:url(#linearGradient3726);stroke:none"/></g></g></g></g><g id="g182"><g clip-path="url(#clipPath78)" id="g184"><g id="g186"><g id="g188"><path d="m 646.578,165.454 -4.8,0 0,56.786 4.8,0 0,-56.786 z" id="path190" style="fill:url(#linearGradient3728);stroke:none"/></g></g></g></g><g id="g192"><g clip-path="url(#clipPath88)" id="g194"><g id="g196"><g id="g198"><path d="m 718.45,211.097 c -0.648,-7.937 -13.492,-10.075 -27.374,-11.296 -14.789,-1.221 -21.795,-2.671 -21.924,-7.174 -0.13,-4.58 8.432,-8.015 20.497,-8.015 11.936,0 19.59,3.053 22.315,8.32 l 4.929,0 c -2.854,-7.099 -12.584,-10.991 -27.373,-10.991 -16.736,0 -25.299,5.343 -25.299,10.686 0.26,7.785 14.531,8.93 26.077,9.922 16.347,1.374 22.963,3.816 23.223,8.624 0.259,2.061 -0.909,3.969 -3.244,5.42 -3.892,2.366 -10.638,3.892 -18.681,3.892 -14.141,0 -23.742,-3.358 -26.078,-9.693 l -4.799,0 c 2.205,8.014 14.141,12.365 31.006,12.365 9.341,0 17.255,-1.68 22.055,-4.58 3.243,-1.984 4.8,-4.732 4.67,-7.48" id="path200" style="fill:url(#linearGradient3730);stroke:none"/></g></g></g></g><g id="g202"><g clip-path="url(#clipPath98)" id="g204"><g id="g206"><g id="g208"><path d="m 788.761,202.701 c 0,9.694 -12.844,17.632 -28.542,17.632 -15.697,0 -28.541,-7.938 -28.541,-17.632 0,-9.846 12.844,-17.86 28.541,-17.86 15.698,0 28.542,8.014 28.542,17.86 m 4.8,-19.768 -4.8,0 0,9.541 c -5.449,-6.259 -16.087,-10.533 -28.542,-10.533 -18.421,0 -33.341,9.312 -33.341,20.76 0,11.297 14.92,20.456 33.341,20.456 12.455,0 23.093,-4.198 28.542,-10.381 l 0,9.465 4.8,0 0,-39.308 z" id="path210" style="fill:url(#linearGradient3732);stroke:none"/></g></g></g></g><g id="g212"><g id="g214"><g id="g216"><g id="g218"><path d="m 870.622,210.029 -5.06,0 c -4.021,6.335 -13.493,10.304 -25.817,10.304 -15.697,0 -28.541,-7.938 -28.541,-17.632 0,-9.846 12.844,-17.86 28.541,-17.86 11.936,0 21.406,3.969 25.687,10.228 l 5.19,0 c -4.541,-7.938 -16.087,-13.128 -30.877,-13.128 -18.422,0 -33.342,9.312 -33.342,20.76 0,11.297 14.92,20.456 33.342,20.456 14.79,0 26.466,-5.19 30.877,-13.128" id="path220" style="fill:url(#linearGradient3734);stroke:none"/></g></g></g></g><g id="g222"><g id="g224"><g id="g226"><g id="g228"><path d="m 884.631,199.725 c 2.205,-8.472 13.882,-14.884 28.022,-14.884 14.011,0 25.818,6.412 28.153,14.884 l -56.175,0 z m 61.364,2.824 c 0.259,-9.922 -13.363,-20.608 -33.342,-20.608 -18.421,0 -33.341,9.312 -33.341,20.76 0,11.449 15.048,20.456 34.12,20.456 15.697,0 26.466,-4.656 31.136,-13.128 l -5.06,0 c -3.243,5.19 -10.379,10.304 -26.076,10.304 -16.217,0 -29.19,-7.557 -29.32,-17.784 l 61.883,0 z" id="path230" style="fill:url(#linearGradient3736);stroke:none"/></g></g></g></g></g></g><path d="m 61.427753,27.779292 -1.174758,0 0,-18.7646782 -8.22307,18.7646782 -1.267452,0 -8.254047,-18.7646782 0,18.7646782 -1.143781,0 0,-21.4542313 1.205498,0 8.810687,20.0631083 8.81021,-20.0631083 1.236713,0 0,21.4542313 z" id="path234" style="fill:#2f5790;fill-opacity:1;fill-rule:nonzero;stroke:none"/><path d="m 73.607112,9.4473202 -1.29843,0 2.59686,-3.1532609 1.483817,0 -2.782247,3.1532609 z m 5.842814,9.2124398 c -0.55664,-3.431581 -3.369626,-6.028202 -6.708275,-6.028202 -3.369626,0 -6.151873,2.596621 -6.677536,6.028202 l 13.385811,0 z m -13.509482,1.143781 c 0.03098,4.142393 3.122284,7.20296 6.986595,7.20296 3.74064,0 5.440823,-2.071196 6.213828,-4.17337 l 1.205497,0 c -1.112803,3.431342 -3.678685,5.317151 -7.419325,5.317151 -4.544384,0 -8.130376,-3.647946 -8.130376,-8.285024 0,-4.637079 3.555014,-8.408458 7.944988,-8.408458 4.76075,0 8.006704,4.328019 7.94475,8.346741 l -14.745957,0 z" id="path246" style="fill:#2f5790;fill-opacity:1;fill-rule:nonzero;stroke:none"/><path d="m 90.300046,12.631487 c -3.74064,0 -6.801207,3.245955 -6.801207,7.233937 0,3.926028 3.060567,7.141006 6.801207,7.141006 3.74064,0 6.801207,-3.214978 6.801207,-7.141006 0,-3.987982 -3.060567,-7.233937 -6.801207,-7.233937 m 7.94475,15.14771 -1.143543,0 0,-3.833334 c -1.29843,2.504165 -3.833572,4.204347 -6.801207,4.204347 -4.389736,0 -7.944988,-3.709662 -7.944988,-8.284786 0,-4.637078 3.555252,-8.408695 7.944988,-8.408695 2.967635,0 5.502777,1.73116 6.801207,4.266064 l 0,-9.2979852 1.143543,0 0,21.3543892 z" id="path250" style="fill:#2f5790;fill-opacity:1;fill-rule:nonzero;stroke:none"/><path d="m 103.99422,27.77934 -1.14378,0 0,-15.920715 1.14378,0 0,15.920715 z m 0,-18.6102684 -1.14378,0 0,-2.7827235 1.14378,0 0,2.7827235 z" id="path252" style="fill:#2f5790;fill-opacity:1;fill-rule:nonzero;stroke:none"/><path d="m 115.33943,7.9016671 -4.32802,11.3453529 8.68702,0 -4.359,-11.3453529 z m -4.76075,12.4891339 -2.8442,7.388586 -1.23648,0 8.22307,-21.4544695 1.26746,0 8.22307,21.4544695 -1.23648,0 -2.8442,-7.388586 -9.55224,0 z" id="path256" style="fill:#5aa1dd;fill-opacity:1;fill-rule:nonzero;stroke:none"/><path d="m 127.92069,27.77934 -1.14378,0 0,-21.5221438 1.14378,0 0,21.5221438 z" id="path258" style="fill:#2f5790;fill-opacity:1;fill-rule:nonzero;stroke:none"/><path d="m 143.93393,26.295427 c -1.14402,1.174758 -3.02959,1.854831 -5.25543,1.854831 -4.01873,0 -6.86293,-1.762137 -7.38835,-5.008092 l 1.14354,0 c 0.55664,2.565882 2.8442,3.926028 6.21407,3.926028 1.91654,0 3.52403,-0.618118 4.45145,-1.576511 0.5564,-0.587379 0.83472,-1.360146 0.77277,-2.194868 -0.0617,-1.947525 -1.63823,-2.936896 -5.53352,-3.493298 -2.75127,-0.401991 -6.15187,-0.86546 -6.21383,-4.018721 0,-2.164129 2.04046,-4.328019 6.0282,-4.328019 3.52428,0 5.84282,1.576511 6.52289,4.45169 l -1.17476,0 c -0.64909,-2.133151 -2.47319,-3.369864 -5.31715,-3.369864 -2.87494,0 -4.91516,1.391361 -4.88442,3.246193 0.031,1.823854 1.70042,2.411233 5.22446,2.90568 3.30791,0.494685 6.36847,1.360384 6.52288,4.575361 0.031,1.113042 -0.34003,2.225846 -1.1128,3.02959" id="path262" style="fill:#2f5790;fill-opacity:1;fill-rule:nonzero;stroke:none"/><path d="m 154.99982,12.631487 c -3.7404,0 -6.80097,3.245955 -6.80097,7.233937 0,3.926028 3.06057,7.141006 6.80097,7.141006 3.74064,0 6.80121,-3.214978 6.80121,-7.141006 0,-3.987982 -3.06057,-7.233937 -6.80121,-7.233937 m 7.94499,15.14771 -1.14378,0 0,-3.833334 c -1.29843,2.504165 -3.83358,4.204347 -6.80121,4.204347 -4.38974,0 -7.94499,-3.709662 -7.94499,-8.284786 0,-4.637078 3.55525,-8.408695 7.94499,-8.408695 2.96763,0 5.50278,1.73116 6.80121,4.266064 l 0,-3.864073 1.14378,0 0,15.920477 z" id="path266" style="fill:#2f5790;fill-opacity:1;fill-rule:nonzero;stroke:none"/><path d="m 173.94977,28.150282 c -4.38974,0 -7.94499,-3.709663 -7.94499,-8.285024 0,-4.637079 3.55525,-8.408458 7.94499,-8.408458 3.52427,0 6.27554,2.102174 7.35761,5.317152 l -1.23648,0 c -1.02034,-2.534905 -3.27693,-4.142393 -6.12113,-4.142393 -3.7404,0 -6.80097,3.245954 -6.80097,7.233699 0,3.926027 3.06057,7.141243 6.80097,7.141243 2.9369,0 5.19372,-1.607727 6.15211,-4.17337 l 1.2055,0 c -1.05109,3.214977 -3.83334,5.317151 -7.35761,5.317151" id="path270" style="fill:#2f5790;fill-opacity:1;fill-rule:nonzero;stroke:none"/><path d="m 198.03129,18.659641 c -0.5564,-3.431343 -3.36963,-6.028202 -6.70827,-6.028202 -3.36987,0 -6.15188,2.596859 -6.6773,6.028202 l 13.38557,0 z m -13.50948,1.143781 c 0.031,4.142393 3.12228,7.20296 6.98659,7.20296 3.74064,0 5.44083,-2.071197 6.21383,-4.173371 l 1.2055,0 c -1.11281,3.431581 -3.67869,5.317152 -7.41933,5.317152 -4.54414,0 -8.13037,-3.647708 -8.13037,-8.284786 0,-4.637079 3.55525,-8.408696 7.94499,-8.408696 4.76074,0 8.0067,4.328019 7.94474,8.346741 l -14.74595,0 z" id="path274" style="fill:#2f5790;fill-opacity:1;fill-rule:nonzero;stroke:none"/><g transform="matrix(0.23828768,0,0,-0.23828768,-26.150881,80.818603)" id="g386"><g id="g388"><path d="m 123.779,310.547 c -34.278,-54.118 14.918,-90.816 35.548,-95.192 l 0,0 c 16.378,-3.476 32.662,2.6 42.916,8.677 l 0,0 c 10.201,6.044 14.436,12.089 6.862,8.73 l 0,0 c -29.533,-13.105 -69.435,6.651 -64.74,46.551 l 0,0 c 2.782,23.65 23.834,37.499 33.879,31.614 l 0,0 c 2.599,-1.522 6.609,-6.97 -1.02,-12.25 l 0,0 c 34.033,-13.203 35.793,18.19 34.148,33.557 l 0,0 c -9.272,4.442 -19.659,6.93 -30.627,6.93 l 0,0 c -23.326,0 -44.023,-11.249 -56.966,-28.617" id="path396" style="fill:url(#linearGradient3639);stroke:none"/></g></g><g transform="matrix(0.23828768,0,0,-0.23828768,-26.150881,80.818603)" id="g406"><g id="g408"><path d="m 170.087,338.368 c 12.004,1.058 21.878,-1.814 24.74,-9.62 l 0,0 c 3.228,-8.801 -2.102,-20.83 -13.887,-27.724 l 0,0 c -24.793,-14.506 -19.251,-36.662 -9.877,-46.942 l 0,0 c 9.095,-9.976 31,-16.136 48.018,3.52 l 0,0 c 21.098,24.373 21.319,60.829 -7.709,74.632 l 0,0 c -9.285,4.416 -19.659,6.93 -30.627,6.93 l 0,0 c -3.623,0 -7.182,-0.273 -10.658,-0.796" id="path416" style="fill:url(#radialGradient3634);stroke:none"/></g></g><g transform="matrix(0.23828768,0,0,-0.23828768,-26.150881,80.818603)" id="g426"><g id="g428"><path d="m 109.745,268.164 c 0,-39.212 31.788,-71 71,-71 l 0,0 c 39.212,0 71,31.788 71,71 l 0,0 c 0,11.86 -2.908,23.041 -8.052,32.869 l 0,0 c -1.746,3.336 -3.529,3.899 -2.766,0.17 l 0,0 c 3.417,-16.691 -0.064,-44.042 -19.891,-60.03 l 0,0 c -29.261,-23.6 -64.153,-24.645 -89.189,-2.347 l 0,0 c -21.911,19.514 -21.809,51.049 -8.068,71.721 l 0,0 c -8.815,-11.83 -14.034,-26.496 -14.034,-42.383" id="path436" style="fill:url(#linearGradient3629);stroke:none"/></g></g></g></svg>